<mxfile host="app.diagrams.net" modified="2023-05-21T10:21:07.303Z" agent="Mozilla/5.0 (Windows NT 10.0; Win64; x64) AppleWebKit/537.36 (KHTML, like Gecko) Chrome/113.0.0.0 Safari/537.36" etag="OGl_qCSTaxPvXtiZiZNw" version="21.1.1" type="device">
  <diagram name="Page-1" id="5oGfWysxt3_sEx6SFwrN">
    <mxGraphModel dx="880" dy="407" grid="1" gridSize="10" guides="1" tooltips="1" connect="1" arrows="1" fold="1" page="1" pageScale="1" pageWidth="850" pageHeight="1100" math="0" shadow="0">
      <root>
        <mxCell id="0" />
        <mxCell id="1" parent="0" />
        <mxCell id="bBvY9pYaJtUS97BE_LUj-3" value="mvc" style="whiteSpace=wrap;html=1;aspect=fixed;" vertex="1" parent="1">
          <mxGeometry x="70" y="10" width="460" height="460" as="geometry" />
        </mxCell>
        <mxCell id="bBvY9pYaJtUS97BE_LUj-5" value="form data&amp;nbsp;" style="edgeStyle=orthogonalEdgeStyle;rounded=0;orthogonalLoop=1;jettySize=auto;html=1;exitX=1;exitY=0.25;exitDx=0;exitDy=0;entryX=0;entryY=0.25;entryDx=0;entryDy=0;" edge="1" parent="1" source="bBvY9pYaJtUS97BE_LUj-1" target="bBvY9pYaJtUS97BE_LUj-2">
          <mxGeometry relative="1" as="geometry" />
        </mxCell>
        <mxCell id="bBvY9pYaJtUS97BE_LUj-1" value="HTML&lt;br&gt;(view)&lt;br&gt;LOGIN" style="whiteSpace=wrap;html=1;aspect=fixed;" vertex="1" parent="1">
          <mxGeometry x="90" y="90" width="190" height="190" as="geometry" />
        </mxCell>
        <mxCell id="bBvY9pYaJtUS97BE_LUj-4" value="JSON" style="edgeStyle=orthogonalEdgeStyle;rounded=0;orthogonalLoop=1;jettySize=auto;html=1;" edge="1" parent="1" source="bBvY9pYaJtUS97BE_LUj-2" target="bBvY9pYaJtUS97BE_LUj-1">
          <mxGeometry relative="1" as="geometry" />
        </mxCell>
        <mxCell id="bBvY9pYaJtUS97BE_LUj-2" value="code php&lt;br&gt;(control)&lt;br&gt;(model)" style="whiteSpace=wrap;html=1;aspect=fixed;" vertex="1" parent="1">
          <mxGeometry x="370" y="70" width="135" height="135" as="geometry" />
        </mxCell>
      </root>
    </mxGraphModel>
  </diagram>
</mxfile>
